{"title":"Fateless aka SorstalansÃƒÂ¡g [x264][AC3(5.1)].mkv","uid":5255031,"size":1382935057,"categoryP":"video","categoryS":"movies","magnet":"?xt=urn:btih:baf636089bb6cae2b25e604489c676090ec741e7&amp;dn=Fateless+aka+Sorstalans%C3%83%C2%A1g+%5Bx264%5D%5BAC3%285.1%29%5D.mkv&amp;tr=udp%3A%2F%2Ftracker.openbittorrent.com%3A80&amp;tr=udp%3A%2F%2Fopen.demonii.com%3A1337&amp;tr=udp%3A%2F%2Ftracker.coppersurfer.tk%3A6969&amp;tr=udp%3A%2F%2Fexodus.desync.com%3A6969","seeders":0,"leechers":1,"uploader":"Zen_Bud","files":-1,"time":1262519773,"description":"General\n\nComplete name                    : Fateless.mkv\n\nFormat                           : Matroska\n\nFile size                        : 1.29 GiB\n\nDuration                         : 2h 14mn\n\nOverall bit rate                 : 1 370 Kbps\n\n\n\n\n\nVideo\n\nID                               : 1\n\nFormat                           : AVC\n\nDuration                         : 2h 14mn\n\nBit rate                         : 894 Kbps\n\nWidth                            : 716 pixels\n\nHeight                           : 328 pixels\n\nDisplay aspect ratio             : 2.35:1\n\nFrame rate                       : 25.000 fps\n\nResolution                       : 8 bits\n\nColorimetry                      : 4:2:0\n\nScan type                        : Progressive\n\nBits/(Pixel*Frame)               : 0.152\n\nStream size                      : 861 MiB (65%)\n\nWriting library                  : x264 core 79\n\n\n\n\n\nAudio\n\nID                               : 2\n\nFormat                           : AC-3\n\nFormat/Info                      : Audio Coding 3\n\nCodec ID                         : A_AC3\n\nDuration                         : 2h 14mn\n\nBit rate mode                    : Constant\n\nBit rate                         : 448 Kbps\n\nChannel(s)                       : 6 channels\n\nChannel positions                : Front: L C R, Surround: L R, LFE\n\nSampling rate                    : 48.0 KHz\n\nStream size                      : 431 MiB (33%)\n\n\nLanguage                         : Hungarian\n\n\n\nText #1\n\nLanguage                         : Danish\n\n\n\nText #2\n\nLanguage                         : Norwegian\n\n\n\nText #3\n\nLanguage                         : Swedish\n\n\n\n\n","torrent":{"xt":"urn:btih:baf636089bb6cae2b25e604489c676090ec741e7","amp;dn":"Fateless+aka+Sorstalans%C3%83%C2%A1g+%5Bx264%5D%5BAC3%285.1%29%5D.mkv","amp;tr":["udp%3A%2F%2Ftracker.openbittorrent.com%3A80","udp%3A%2F%2Fopen.demonii.com%3A1337","udp%3A%2F%2Ftracker.coppersurfer.tk%3A6969","udp%3A%2F%2Fexodus.desync.com%3A6969"],"infoHash":"baf636089bb6cae2b25e604489c676090ec741e7","infoHashBuffer":{"type":"Buffer","data":[186,246,54,8,155,182,202,226,178,94,96,68,137,198,118,9,14,199,65,231]},"announce":[],"urlList":[]}}